<?xml version="1.0" encoding="UTF-8" standalone="no"?>
<svg width="200" height="200" viewBox="0 0 200 200" xmlns="http://www.w3.org/2000/svg">
  <!-- Background -->
  <rect x="10" y="10" width="180" height="180" rx="15" ry="15" fill="#f0f0f0" stroke="#333" stroke-width="3"/>
  
  <!-- Sudoku Grid -->
  <g stroke="#333" stroke-width="2">
    <!-- Horizontal lines -->
    <line x1="10" y1="70" x2="190" y2="70" stroke-width="3"/>
    <line x1="10" y1="130" x2="190" y2="130" stroke-width="3"/>
    <line x1="10" y1="40" x2="190" y2="40"/>
    <line x1="10" y1="100" x2="190" y2="100"/>
    <line x1="10" y1="160" x2="190" y2="160"/>
    
    <!-- Vertical lines -->
    <line x1="70" y1="10" x2="70" y2="190" stroke-width="3"/>
    <line x1="130" y1="10" x2="130" y2="190" stroke-width="3"/>
    <line x1="40" y1="10" x2="40" y2="190"/>
    <line x1="100" y1="10" x2="100" y2="190"/>
    <line x1="160" y1="10" x2="160" y2="190"/>
  </g>
  
  <!-- Sample Numbers -->
  <g font-family="Arial, sans-serif" font-weight="bold" text-anchor="middle">
    <text x="25" y="32" font-size="20" fill="#0066CC">5</text>
    <text x="85" y="32" font-size="20" fill="#0066CC">3</text>
    <text x="145" y="32" font-size="20" fill="#0066CC">7</text>
    <text x="25" y="92" font-size="20" fill="#0066CC">6</text>
    <text x="85" y="92" font-size="20" fill="#009900">8</text>
    <text x="145" y="92" font-size="20" fill="#0066CC">2</text>
    <text x="25" y="152" font-size="20" fill="#009900">1</text>
    <text x="85" y="152" font-size="20" fill="#0066CC">9</text>
    <text x="145" y="152" font-size="20" fill="#009900">4</text>
  </g>
  
  <!-- Title -->
  <text x="100" y="195" font-family="Arial, sans-serif" font-size="16" font-weight="bold" text-anchor="middle" fill="#333">SUDOLO</text>
</svg>
